<mxfile host="" modified="2020-05-24T15:21:41.060Z" agent="5.0 (X11; Linux x86_64) AppleWebKit/537.36 (KHTML, like Gecko) Code/1.45.0 Chrome/78.0.3904.130 Electron/7.2.4 Safari/537.36" version="13.1.3" etag="lrwgP8mNOWNbAz78NI_h" pages="2">
            <diagram id="diagramid" name="Diagram">
              <mxGraphModel><root><mxCell id="0"/><mxCell id="1" parent="0"/><mxCell id="2" value="S3Bucket" style="outlineConnect=0;fontColor=#B3B3B3;gradientColor=#60A337;gradientDirection=north;fillColor=#277116;strokeColor=#ffffff;dashed=0;verticalLabelPosition=bottom;verticalAlign=top;align=center;html=1;fontSize=12;fontStyle=0;aspect=fixed;shape=mxgraph.aws4.resourceIcon;resIcon=mxgraph.aws4.s3;" vertex="1" parent="1"><mxGeometry x="500" y="75" width="50" height="50" as="geometry"/></mxCell><mxCell id="3" value="S3BucketPolicy" style="outlineConnect=0;fontColor=#B3B3B3;gradientColor=#60A337;gradientDirection=north;fillColor=#277116;strokeColor=#ffffff;dashed=0;verticalLabelPosition=bottom;verticalAlign=top;align=center;html=1;fontSize=12;fontStyle=0;aspect=fixed;shape=mxgraph.aws4.resourceIcon;resIcon=mxgraph.aws4.s3;" vertex="1" parent="1"><mxGeometry y="75" width="50" height="50" as="geometry"/></mxCell><mxCell id="4" value="CloudFrontOriginAccessIdentity" style="outlineConnect=0;fontColor=#B3B3B3;gradientColor=#945DF2;gradientDirection=north;fillColor=#5A30B5;strokeColor=#ffffff;dashed=0;verticalLabelPosition=bottom;verticalAlign=top;align=center;html=1;fontSize=12;fontStyle=0;aspect=fixed;shape=mxgraph.aws4.resourceIcon;resIcon=mxgraph.aws4.cloudfront;" vertex="1" parent="1"><mxGeometry x="500" y="250" width="50" height="50" as="geometry"/></mxCell><mxCell id="5" value="CloudFrontDistribution" style="outlineConnect=0;fontColor=#B3B3B3;gradientColor=#945DF2;gradientDirection=north;fillColor=#5A30B5;strokeColor=#ffffff;dashed=0;verticalLabelPosition=bottom;verticalAlign=top;align=center;html=1;fontSize=12;fontStyle=0;aspect=fixed;shape=mxgraph.aws4.resourceIcon;resIcon=mxgraph.aws4.cloudfront;" vertex="1" parent="1"><mxGeometry x="250" y="250" width="50" height="50" as="geometry"/></mxCell><mxCell id="6" value="Route53RecordSet" style="outlineConnect=0;fontColor=#B3B3B3;gradientColor=#945DF2;gradientDirection=north;fillColor=#5A30B5;strokeColor=#ffffff;dashed=0;verticalLabelPosition=bottom;verticalAlign=top;align=center;html=1;fontSize=12;fontStyle=0;aspect=fixed;shape=mxgraph.aws4.resourceIcon;resIcon=mxgraph.aws4.route53;" vertex="1" parent="1"><mxGeometry y="250" width="50" height="50" as="geometry"/></mxCell><mxCell id="7" value="iam  cloudfront&#xA;user/cloudfront origin access identity ${cloudfrontoriginaccessidentity}" style="outlineConnect=0;fontColor=#B3B3B3;gradientColor=#aaaaaa;gradientDirection=north;fillColor=#aaaaaa;strokeColor=#ffffff;dashed=0;verticalLabelPosition=bottom;verticalAlign=top;align=center;html=1;fontSize=12;fontStyle=0;aspect=fixed;shape=mxgraph.aws4.resourceIcon;resIcon=mxgraph.aws4.identity_and_access_management;" vertex="1" parent="1"><mxGeometry x="250" width="50" height="50" as="geometry"/></mxCell><mxCell id="8" value="s3  &#xA;${s3bucket}/*" style="outlineConnect=0;fontColor=#B3B3B3;gradientColor=#aaaaaa;gradientDirection=north;fillColor=#aaaaaa;strokeColor=#ffffff;dashed=0;verticalLabelPosition=bottom;verticalAlign=top;align=center;html=1;fontSize=12;fontStyle=0;aspect=fixed;shape=mxgraph.aws4.resourceIcon;resIcon=mxgraph.aws4.s3;" vertex="1" parent="1"><mxGeometry x="250" y="100" width="50" height="50" as="geometry"/></mxCell><mxCell id="iam  cloudfront&#xA;user/cloudfront origin access identity ${cloudfrontoriginaccessidentity}|S3BucketPolicy" value="AWS" style="edgeStyle=orthogonalEdgeStyle;rounded=1;orthogonalLoop=1;jettySize=auto;html=1;labelBackgroundColor=none;fontColor=#EA6B66;noEdgeStyle=1;orthogonal=1;" edge="1" parent="1" source="3" target="7"><mxGeometry relative="1" as="geometry"><Array as="points"><mxPoint x="62" y="86.66666666666667"/><mxPoint x="238" y="25"/></Array></mxGeometry></mxCell><mxCell id="s3  &#xA;${s3bucket}/*|S3BucketPolicy" value="Resource" style="edgeStyle=orthogonalEdgeStyle;rounded=1;orthogonalLoop=1;jettySize=auto;html=1;labelBackgroundColor=none;fontColor=#EA6B66;noEdgeStyle=1;orthogonal=1;" edge="1" parent="1" source="3" target="8"><mxGeometry relative="1" as="geometry"><Array as="points"><mxPoint x="64" y="100"/><mxPoint x="238" y="125"/></Array></mxGeometry></mxCell><mxCell id="S3Bucket|S3BucketPolicy" value="Bucket" style="edgeStyle=orthogonalEdgeStyle;rounded=1;orthogonalLoop=1;jettySize=auto;html=1;labelBackgroundColor=none;fontColor=#EA6B66;noEdgeStyle=1;orthogonal=1;" edge="1" parent="1" source="3" target="2"><mxGeometry relative="1" as="geometry"><Array as="points"><mxPoint x="62" y="113.33333333333333"/><mxPoint x="150" y="200"/><mxPoint x="400" y="200"/><mxPoint x="488" y="90"/></Array></mxGeometry></mxCell><mxCell id="S3Bucket|CloudFrontDistribution" value="DomainName&#xA;Id&#xA;TargetOriginId" style="edgeStyle=orthogonalEdgeStyle;rounded=1;orthogonalLoop=1;jettySize=auto;html=1;labelBackgroundColor=none;fontColor=#EA6B66;noEdgeStyle=1;orthogonal=1;" edge="1" parent="1" source="5" target="2"><mxGeometry relative="1" as="geometry"><Array as="points"><mxPoint x="312" y="265"/><mxPoint x="488" y="110"/></Array></mxGeometry></mxCell><mxCell id="CloudFrontOriginAccessIdentity|CloudFrontDistribution" value="OriginAccessIdentity" style="edgeStyle=orthogonalEdgeStyle;rounded=1;orthogonalLoop=1;jettySize=auto;html=1;labelBackgroundColor=none;fontColor=#EA6B66;noEdgeStyle=1;orthogonal=1;" edge="1" parent="1" source="5" target="4"><mxGeometry relative="1" as="geometry"><Array as="points"><mxPoint x="312" y="285"/><mxPoint x="488" y="275"/></Array></mxGeometry></mxCell><mxCell id="CloudFrontDistribution|Route53RecordSet" value="DNSName" style="edgeStyle=orthogonalEdgeStyle;rounded=1;orthogonalLoop=1;jettySize=auto;html=1;labelBackgroundColor=none;fontColor=#EA6B66;noEdgeStyle=1;orthogonal=1;" edge="1" parent="1" source="6" target="5"><mxGeometry relative="1" as="geometry"><Array as="points"><mxPoint x="62" y="275"/><mxPoint x="238" y="275"/></Array></mxGeometry></mxCell></root></mxGraphModel>
            </diagram>
          </mxfile>